<mxfile host="Electron" modified="2023-05-19T16:09:22.073Z" agent="Mozilla/5.0 (Windows NT 10.0; Win64; x64) AppleWebKit/537.36 (KHTML, like Gecko) draw.io/21.2.8 Chrome/112.0.5615.165 Electron/24.2.0 Safari/537.36" etag="ulATPnESzOcLgr4U6got" version="21.2.8" type="device">
  <diagram name="Page-1" id="2YBvvXClWsGukQMizWep">
    <mxGraphModel dx="1000" dy="599" grid="1" gridSize="10" guides="1" tooltips="1" connect="1" arrows="1" fold="1" page="1" pageScale="1" pageWidth="850" pageHeight="1100" math="0" shadow="0">
      <root>
        <mxCell id="0" />
        <mxCell id="1" parent="0" />
        <mxCell id="70frM7EX9ZJ0dtSW_2JZ-48" value="Alternative" style="shape=umlFrame;whiteSpace=wrap;html=1;pointerEvents=0;swimlaneFillColor=#F8F9FA;fillColor=#FFDF9C;" vertex="1" parent="1">
          <mxGeometry x="10" y="400" width="1130" height="415" as="geometry" />
        </mxCell>
        <mxCell id="70frM7EX9ZJ0dtSW_2JZ-49" value="Alternative" style="shape=umlFrame;whiteSpace=wrap;html=1;pointerEvents=0;swimlaneFillColor=#E6E6E6;fillColor=#FFDF9C;" vertex="1" parent="1">
          <mxGeometry x="20" y="545" width="1120" height="150" as="geometry" />
        </mxCell>
        <mxCell id="70frM7EX9ZJ0dtSW_2JZ-1" value="" style="shape=umlLifeline;perimeter=lifelinePerimeter;whiteSpace=wrap;html=1;container=1;dropTarget=0;collapsible=0;recursiveResize=0;outlineConnect=0;portConstraint=eastwest;newEdgeStyle={&quot;edgeStyle&quot;:&quot;elbowEdgeStyle&quot;,&quot;elbow&quot;:&quot;vertical&quot;,&quot;curved&quot;:0,&quot;rounded&quot;:0};participant=umlActor;fillColor=#E6D0DE;" vertex="1" parent="1">
          <mxGeometry x="80" y="40" width="20" height="800" as="geometry" />
        </mxCell>
        <mxCell id="70frM7EX9ZJ0dtSW_2JZ-2" value="Interfaz" style="shape=umlLifeline;perimeter=lifelinePerimeter;whiteSpace=wrap;html=1;container=0;dropTarget=0;collapsible=0;recursiveResize=0;outlineConnect=0;portConstraint=eastwest;newEdgeStyle={&quot;edgeStyle&quot;:&quot;elbowEdgeStyle&quot;,&quot;elbow&quot;:&quot;vertical&quot;,&quot;curved&quot;:0,&quot;rounded&quot;:0};fillColor=#91DEBF;" vertex="1" parent="1">
          <mxGeometry x="220" y="40" width="100" height="800" as="geometry" />
        </mxCell>
        <mxCell id="70frM7EX9ZJ0dtSW_2JZ-3" value="Controller" style="shape=umlLifeline;perimeter=lifelinePerimeter;whiteSpace=wrap;html=1;container=1;dropTarget=0;collapsible=0;recursiveResize=0;outlineConnect=0;portConstraint=eastwest;newEdgeStyle={&quot;edgeStyle&quot;:&quot;elbowEdgeStyle&quot;,&quot;elbow&quot;:&quot;vertical&quot;,&quot;curved&quot;:0,&quot;rounded&quot;:0};fillColor=#F7BBBD;" vertex="1" parent="1">
          <mxGeometry x="400" y="40" width="100" height="800" as="geometry" />
        </mxCell>
        <mxCell id="70frM7EX9ZJ0dtSW_2JZ-4" value="ViewModel" style="shape=umlLifeline;perimeter=lifelinePerimeter;whiteSpace=wrap;html=1;container=1;dropTarget=0;collapsible=0;recursiveResize=0;outlineConnect=0;portConstraint=eastwest;newEdgeStyle={&quot;edgeStyle&quot;:&quot;elbowEdgeStyle&quot;,&quot;elbow&quot;:&quot;vertical&quot;,&quot;curved&quot;:0,&quot;rounded&quot;:0};fillColor=#9FD8E4;" vertex="1" parent="1">
          <mxGeometry x="590" y="40" width="100" height="800" as="geometry" />
        </mxCell>
        <mxCell id="70frM7EX9ZJ0dtSW_2JZ-5" value="Administrador" style="text;html=1;align=center;verticalAlign=middle;resizable=0;points=[];autosize=1;strokeColor=none;fillColor=none;" vertex="1" parent="1">
          <mxGeometry x="40" y="10" width="100" height="30" as="geometry" />
        </mxCell>
        <mxCell id="70frM7EX9ZJ0dtSW_2JZ-6" value="" style="shape=umlLifeline;perimeter=lifelinePerimeter;whiteSpace=wrap;html=1;container=1;dropTarget=0;collapsible=0;recursiveResize=0;outlineConnect=0;portConstraint=eastwest;newEdgeStyle={&quot;edgeStyle&quot;:&quot;elbowEdgeStyle&quot;,&quot;elbow&quot;:&quot;vertical&quot;,&quot;curved&quot;:0,&quot;rounded&quot;:0};participant=umlActor;fillColor=#FFDF9C;" vertex="1" parent="1">
          <mxGeometry x="990" y="40" width="20" height="800" as="geometry" />
        </mxCell>
        <mxCell id="70frM7EX9ZJ0dtSW_2JZ-7" value="BBDD" style="text;html=1;align=center;verticalAlign=middle;resizable=0;points=[];autosize=1;strokeColor=none;fillColor=none;" vertex="1" parent="1">
          <mxGeometry x="970" y="10" width="60" height="30" as="geometry" />
        </mxCell>
        <mxCell id="70frM7EX9ZJ0dtSW_2JZ-8" value="Repository" style="shape=umlLifeline;perimeter=lifelinePerimeter;whiteSpace=wrap;html=1;container=1;dropTarget=0;collapsible=0;recursiveResize=0;outlineConnect=0;portConstraint=eastwest;newEdgeStyle={&quot;edgeStyle&quot;:&quot;elbowEdgeStyle&quot;,&quot;elbow&quot;:&quot;vertical&quot;,&quot;curved&quot;:0,&quot;rounded&quot;:0};fillColor=#FFA78E;" vertex="1" parent="1">
          <mxGeometry x="790" y="40" width="100" height="800" as="geometry" />
        </mxCell>
        <mxCell id="70frM7EX9ZJ0dtSW_2JZ-9" value="" style="rounded=0;whiteSpace=wrap;html=1;fillColor=#E6D0DE;" vertex="1" parent="1">
          <mxGeometry x="85" y="90" width="10" height="170" as="geometry" />
        </mxCell>
        <mxCell id="70frM7EX9ZJ0dtSW_2JZ-10" value="" style="rounded=0;whiteSpace=wrap;html=1;fillColor=#91DEBF;" vertex="1" parent="1">
          <mxGeometry x="265" y="100" width="10" height="160" as="geometry" />
        </mxCell>
        <mxCell id="70frM7EX9ZJ0dtSW_2JZ-11" value="" style="rounded=0;whiteSpace=wrap;html=1;fillColor=#F7BBBD;" vertex="1" parent="1">
          <mxGeometry x="445" y="110" width="10" height="30" as="geometry" />
        </mxCell>
        <mxCell id="70frM7EX9ZJ0dtSW_2JZ-12" value="" style="rounded=0;whiteSpace=wrap;html=1;fillColor=#9FD8E4;" vertex="1" parent="1">
          <mxGeometry x="635" y="120" width="10" height="130" as="geometry" />
        </mxCell>
        <mxCell id="70frM7EX9ZJ0dtSW_2JZ-13" value="" style="rounded=0;whiteSpace=wrap;html=1;fillColor=#FFA78E;" vertex="1" parent="1">
          <mxGeometry x="835" y="130" width="10" height="60" as="geometry" />
        </mxCell>
        <mxCell id="70frM7EX9ZJ0dtSW_2JZ-14" value="" style="rounded=0;whiteSpace=wrap;html=1;fillColor=#FFDF9C;" vertex="1" parent="1">
          <mxGeometry x="995" y="140" width="10" height="40" as="geometry" />
        </mxCell>
        <mxCell id="70frM7EX9ZJ0dtSW_2JZ-15" value="Selecciona fila tabla trabajadores" style="html=1;verticalAlign=bottom;endArrow=block;edgeStyle=elbowEdgeStyle;elbow=vertical;curved=0;rounded=0;" edge="1" parent="1">
          <mxGeometry width="80" relative="1" as="geometry">
            <mxPoint x="95" y="110" as="sourcePoint" />
            <mxPoint x="262" y="108.85" as="targetPoint" />
          </mxGeometry>
        </mxCell>
        <mxCell id="70frM7EX9ZJ0dtSW_2JZ-16" value="Evento" style="html=1;verticalAlign=bottom;endArrow=block;edgeStyle=elbowEdgeStyle;elbow=vertical;curved=0;rounded=0;" edge="1" parent="1">
          <mxGeometry width="80" relative="1" as="geometry">
            <mxPoint x="275" y="119.75" as="sourcePoint" />
            <mxPoint x="442" y="120" as="targetPoint" />
          </mxGeometry>
        </mxCell>
        <mxCell id="70frM7EX9ZJ0dtSW_2JZ-17" value="viewModel.selectTrabajador(id)" style="html=1;verticalAlign=bottom;endArrow=block;edgeStyle=elbowEdgeStyle;elbow=vertical;curved=0;rounded=0;" edge="1" parent="1">
          <mxGeometry width="80" relative="1" as="geometry">
            <mxPoint x="455" y="129.75" as="sourcePoint" />
            <mxPoint x="633" y="129" as="targetPoint" />
          </mxGeometry>
        </mxCell>
        <mxCell id="70frM7EX9ZJ0dtSW_2JZ-19" value="repository.findById(id)" style="html=1;verticalAlign=bottom;endArrow=block;edgeStyle=elbowEdgeStyle;elbow=vertical;curved=0;rounded=0;" edge="1" parent="1">
          <mxGeometry width="80" relative="1" as="geometry">
            <mxPoint x="645" y="139.5" as="sourcePoint" />
            <mxPoint x="831" y="140" as="targetPoint" />
          </mxGeometry>
        </mxCell>
        <mxCell id="70frM7EX9ZJ0dtSW_2JZ-20" value="Consulta Select" style="html=1;verticalAlign=bottom;endArrow=block;edgeStyle=elbowEdgeStyle;elbow=vertical;curved=0;rounded=0;" edge="1" parent="1">
          <mxGeometry width="80" relative="1" as="geometry">
            <mxPoint x="845" y="150" as="sourcePoint" />
            <mxPoint x="992" y="151" as="targetPoint" />
          </mxGeometry>
        </mxCell>
        <mxCell id="70frM7EX9ZJ0dtSW_2JZ-21" value="ResultSet" style="html=1;verticalAlign=bottom;endArrow=open;dashed=1;endSize=8;edgeStyle=elbowEdgeStyle;elbow=vertical;curved=0;rounded=0;" edge="1" parent="1">
          <mxGeometry relative="1" as="geometry">
            <mxPoint x="995" y="174.86" as="sourcePoint" />
            <mxPoint x="847" y="174.86" as="targetPoint" />
          </mxGeometry>
        </mxCell>
        <mxCell id="70frM7EX9ZJ0dtSW_2JZ-22" value="Result" style="html=1;verticalAlign=bottom;endArrow=open;dashed=1;endSize=8;edgeStyle=elbowEdgeStyle;elbow=vertical;curved=0;rounded=0;" edge="1" parent="1">
          <mxGeometry relative="1" as="geometry">
            <mxPoint x="835" y="180.19000000000003" as="sourcePoint" />
            <mxPoint x="649" y="180" as="targetPoint" />
          </mxGeometry>
        </mxCell>
        <mxCell id="70frM7EX9ZJ0dtSW_2JZ-24" value="" style="edgeStyle=elbowEdgeStyle;elbow=horizontal;endArrow=classic;html=1;curved=0;rounded=0;endSize=8;startSize=8;" edge="1" parent="1">
          <mxGeometry width="50" height="50" relative="1" as="geometry">
            <mxPoint x="645" y="198" as="sourcePoint" />
            <mxPoint x="646" y="230" as="targetPoint" />
            <Array as="points">
              <mxPoint x="695" y="221" />
            </Array>
          </mxGeometry>
        </mxCell>
        <mxCell id="70frM7EX9ZJ0dtSW_2JZ-25" value="Actualiza el estado" style="text;html=1;align=center;verticalAlign=middle;resizable=0;points=[];autosize=1;strokeColor=none;fillColor=none;" vertex="1" parent="1">
          <mxGeometry x="690" y="198" width="120" height="30" as="geometry" />
        </mxCell>
        <mxCell id="70frM7EX9ZJ0dtSW_2JZ-26" value="Interfaz reactiva" style="html=1;verticalAlign=bottom;endArrow=open;dashed=1;endSize=8;edgeStyle=elbowEdgeStyle;elbow=vertical;curved=0;rounded=0;" edge="1" parent="1">
          <mxGeometry relative="1" as="geometry">
            <mxPoint x="635" y="240" as="sourcePoint" />
            <mxPoint x="280" y="240" as="targetPoint" />
          </mxGeometry>
        </mxCell>
        <mxCell id="70frM7EX9ZJ0dtSW_2JZ-27" value="Muestra la pestaña de detalles" style="html=1;verticalAlign=bottom;endArrow=open;dashed=1;endSize=8;edgeStyle=elbowEdgeStyle;elbow=vertical;curved=0;rounded=0;" edge="1" parent="1">
          <mxGeometry relative="1" as="geometry">
            <mxPoint x="265" y="250" as="sourcePoint" />
            <mxPoint x="97" y="249" as="targetPoint" />
          </mxGeometry>
        </mxCell>
        <mxCell id="70frM7EX9ZJ0dtSW_2JZ-80" value="" style="edgeStyle=orthogonalEdgeStyle;rounded=0;orthogonalLoop=1;jettySize=auto;html=1;" edge="1" parent="1" source="70frM7EX9ZJ0dtSW_2JZ-28" target="70frM7EX9ZJ0dtSW_2JZ-50">
          <mxGeometry relative="1" as="geometry" />
        </mxCell>
        <mxCell id="70frM7EX9ZJ0dtSW_2JZ-28" value="" style="rounded=0;whiteSpace=wrap;html=1;fillColor=#E6D0DE;" vertex="1" parent="1">
          <mxGeometry x="85" y="280" width="10" height="100" as="geometry" />
        </mxCell>
        <mxCell id="70frM7EX9ZJ0dtSW_2JZ-29" value="Acciona el boton de edición" style="html=1;verticalAlign=bottom;endArrow=block;edgeStyle=elbowEdgeStyle;elbow=vertical;curved=0;rounded=0;" edge="1" parent="1">
          <mxGeometry width="80" relative="1" as="geometry">
            <mxPoint x="95" y="300" as="sourcePoint" />
            <mxPoint x="252" y="299" as="targetPoint" />
          </mxGeometry>
        </mxCell>
        <mxCell id="70frM7EX9ZJ0dtSW_2JZ-30" value="" style="rounded=0;whiteSpace=wrap;html=1;fillColor=#91DEBF;" vertex="1" parent="1">
          <mxGeometry x="265" y="290" width="10" height="80" as="geometry" />
        </mxCell>
        <mxCell id="70frM7EX9ZJ0dtSW_2JZ-31" value="" style="rounded=0;whiteSpace=wrap;html=1;fillColor=#F7BBBD;" vertex="1" parent="1">
          <mxGeometry x="445" y="300" width="10" height="50" as="geometry" />
        </mxCell>
        <mxCell id="70frM7EX9ZJ0dtSW_2JZ-32" value="Evento" style="html=1;verticalAlign=bottom;endArrow=block;edgeStyle=elbowEdgeStyle;elbow=vertical;curved=0;rounded=0;" edge="1" parent="1">
          <mxGeometry width="80" relative="1" as="geometry">
            <mxPoint x="275" y="310" as="sourcePoint" />
            <mxPoint x="439" y="310" as="targetPoint" />
          </mxGeometry>
        </mxCell>
        <mxCell id="70frM7EX9ZJ0dtSW_2JZ-45" value="Abre el modal del formulario" style="html=1;verticalAlign=bottom;endArrow=open;dashed=1;endSize=8;edgeStyle=elbowEdgeStyle;elbow=vertical;curved=0;rounded=0;" edge="1" parent="1">
          <mxGeometry relative="1" as="geometry">
            <mxPoint x="445" y="340" as="sourcePoint" />
            <mxPoint x="279" y="340" as="targetPoint" />
          </mxGeometry>
        </mxCell>
        <mxCell id="70frM7EX9ZJ0dtSW_2JZ-46" value="Vista del formulario" style="html=1;verticalAlign=bottom;endArrow=open;dashed=1;endSize=8;edgeStyle=elbowEdgeStyle;elbow=vertical;curved=0;rounded=0;" edge="1" parent="1">
          <mxGeometry relative="1" as="geometry">
            <mxPoint x="265" y="360" as="sourcePoint" />
            <mxPoint x="103" y="360" as="targetPoint" />
          </mxGeometry>
        </mxCell>
        <mxCell id="70frM7EX9ZJ0dtSW_2JZ-50" value="" style="rounded=0;whiteSpace=wrap;html=1;fillColor=#E6D0DE;" vertex="1" parent="1">
          <mxGeometry x="85" y="415" width="10" height="360" as="geometry" />
        </mxCell>
        <mxCell id="70frM7EX9ZJ0dtSW_2JZ-51" value="Pulsa boton &quot;save&quot;" style="html=1;verticalAlign=bottom;endArrow=block;edgeStyle=elbowEdgeStyle;elbow=vertical;curved=0;rounded=0;exitX=1.022;exitY=0.042;exitDx=0;exitDy=0;exitPerimeter=0;" edge="1" parent="1">
          <mxGeometry width="80" relative="1" as="geometry">
            <mxPoint x="95" y="425" as="sourcePoint" />
            <mxPoint x="263" y="426" as="targetPoint" />
          </mxGeometry>
        </mxCell>
        <mxCell id="70frM7EX9ZJ0dtSW_2JZ-52" value="" style="rounded=0;whiteSpace=wrap;html=1;fillColor=#91DEBF;" vertex="1" parent="1">
          <mxGeometry x="265" y="415" width="10" height="30" as="geometry" />
        </mxCell>
        <mxCell id="70frM7EX9ZJ0dtSW_2JZ-53" value="" style="rounded=0;whiteSpace=wrap;html=1;fillColor=#9FD8E4;" vertex="1" parent="1">
          <mxGeometry x="635" y="445" width="10" height="310" as="geometry" />
        </mxCell>
        <mxCell id="70frM7EX9ZJ0dtSW_2JZ-54" value="" style="endArrow=none;dashed=1;html=1;rounded=0;entryX=1.001;entryY=0.782;entryDx=0;entryDy=0;entryPerimeter=0;exitX=0;exitY=0.776;exitDx=0;exitDy=0;exitPerimeter=0;" edge="1" parent="1" source="70frM7EX9ZJ0dtSW_2JZ-48" target="70frM7EX9ZJ0dtSW_2JZ-48">
          <mxGeometry width="50" height="50" relative="1" as="geometry">
            <mxPoint x="40" y="845" as="sourcePoint" />
            <mxPoint x="280" y="865" as="targetPoint" />
          </mxGeometry>
        </mxCell>
        <mxCell id="70frM7EX9ZJ0dtSW_2JZ-55" value="&lt;font style=&quot;font-size: 11px;&quot;&gt;[Validación Correcta]&lt;/font&gt;" style="text;html=1;align=center;verticalAlign=middle;resizable=0;points=[];autosize=1;strokeColor=none;fillColor=none;" vertex="1" parent="1">
          <mxGeometry x="1020" y="400" width="120" height="30" as="geometry" />
        </mxCell>
        <mxCell id="70frM7EX9ZJ0dtSW_2JZ-56" value="&lt;font style=&quot;font-size: 11px;&quot;&gt;[Validación Incorrecta]&lt;/font&gt;" style="text;html=1;align=center;verticalAlign=middle;resizable=0;points=[];autosize=1;strokeColor=none;fillColor=none;" vertex="1" parent="1">
          <mxGeometry x="1015" y="725" width="130" height="30" as="geometry" />
        </mxCell>
        <mxCell id="70frM7EX9ZJ0dtSW_2JZ-57" value="" style="edgeStyle=elbowEdgeStyle;elbow=horizontal;endArrow=classic;html=1;curved=0;rounded=0;endSize=8;startSize=8;" edge="1" parent="1">
          <mxGeometry width="50" height="50" relative="1" as="geometry">
            <mxPoint x="645" y="452" as="sourcePoint" />
            <mxPoint x="646" y="484" as="targetPoint" />
            <Array as="points">
              <mxPoint x="695" y="475" />
            </Array>
          </mxGeometry>
        </mxCell>
        <mxCell id="70frM7EX9ZJ0dtSW_2JZ-58" value="&lt;font style=&quot;font-size: 11px;&quot;&gt;Validar estado&lt;/font&gt;" style="text;html=1;align=center;verticalAlign=middle;resizable=0;points=[];autosize=1;strokeColor=none;fillColor=none;" vertex="1" parent="1">
          <mxGeometry x="690" y="455" width="90" height="30" as="geometry" />
        </mxCell>
        <mxCell id="70frM7EX9ZJ0dtSW_2JZ-59" value="viewModel.save(cita)" style="html=1;verticalAlign=bottom;endArrow=block;edgeStyle=elbowEdgeStyle;elbow=vertical;curved=0;rounded=0;" edge="1" parent="1">
          <mxGeometry width="80" relative="1" as="geometry">
            <mxPoint x="645" y="515" as="sourcePoint" />
            <mxPoint x="833" y="515" as="targetPoint" />
          </mxGeometry>
        </mxCell>
        <mxCell id="70frM7EX9ZJ0dtSW_2JZ-60" value="" style="rounded=0;whiteSpace=wrap;html=1;fillColor=#F7BBBD;" vertex="1" parent="1">
          <mxGeometry x="445" y="425" width="10" height="35" as="geometry" />
        </mxCell>
        <mxCell id="70frM7EX9ZJ0dtSW_2JZ-61" value="viewModel.Save()" style="html=1;verticalAlign=bottom;endArrow=block;edgeStyle=elbowEdgeStyle;elbow=vertical;curved=0;rounded=0;" edge="1" parent="1">
          <mxGeometry width="80" relative="1" as="geometry">
            <mxPoint x="455" y="454.33" as="sourcePoint" />
            <mxPoint x="630" y="453" as="targetPoint" />
          </mxGeometry>
        </mxCell>
        <mxCell id="70frM7EX9ZJ0dtSW_2JZ-62" value="" style="rounded=0;whiteSpace=wrap;html=1;fillColor=#FFA78E;" vertex="1" parent="1">
          <mxGeometry x="835" y="505" width="10" height="80" as="geometry" />
        </mxCell>
        <mxCell id="70frM7EX9ZJ0dtSW_2JZ-63" value="Hace el update" style="html=1;verticalAlign=bottom;endArrow=block;edgeStyle=elbowEdgeStyle;elbow=vertical;curved=0;rounded=0;" edge="1" parent="1">
          <mxGeometry width="80" relative="1" as="geometry">
            <mxPoint x="845" y="535" as="sourcePoint" />
            <mxPoint x="994" y="535" as="targetPoint" />
          </mxGeometry>
        </mxCell>
        <mxCell id="70frM7EX9ZJ0dtSW_2JZ-64" value="" style="rounded=0;whiteSpace=wrap;html=1;fillColor=#FFDF9C;" vertex="1" parent="1">
          <mxGeometry x="995" y="525" width="10" height="40" as="geometry" />
        </mxCell>
        <mxCell id="70frM7EX9ZJ0dtSW_2JZ-65" value="ResultSet" style="html=1;verticalAlign=bottom;endArrow=open;dashed=1;endSize=8;edgeStyle=elbowEdgeStyle;elbow=vertical;curved=0;rounded=0;" edge="1" parent="1">
          <mxGeometry relative="1" as="geometry">
            <mxPoint x="995" y="565" as="sourcePoint" />
            <mxPoint x="847" y="565" as="targetPoint" />
          </mxGeometry>
        </mxCell>
        <mxCell id="70frM7EX9ZJ0dtSW_2JZ-66" value="Result" style="html=1;verticalAlign=bottom;endArrow=open;dashed=1;endSize=8;edgeStyle=elbowEdgeStyle;elbow=vertical;curved=0;rounded=0;" edge="1" parent="1">
          <mxGeometry relative="1" as="geometry">
            <mxPoint x="835" y="575.0899999999999" as="sourcePoint" />
            <mxPoint x="647" y="575" as="targetPoint" />
          </mxGeometry>
        </mxCell>
        <mxCell id="70frM7EX9ZJ0dtSW_2JZ-67" value="Muestra un Alert de Información" style="html=1;verticalAlign=bottom;endArrow=open;dashed=1;endSize=8;edgeStyle=elbowEdgeStyle;elbow=vertical;curved=0;rounded=0;" edge="1" parent="1">
          <mxGeometry relative="1" as="geometry">
            <mxPoint x="635" y="595.21" as="sourcePoint" />
            <mxPoint x="277" y="595" as="targetPoint" />
          </mxGeometry>
        </mxCell>
        <mxCell id="70frM7EX9ZJ0dtSW_2JZ-68" value="" style="rounded=0;whiteSpace=wrap;html=1;fillColor=#91DEBF;" vertex="1" parent="1">
          <mxGeometry x="265" y="585" width="10" height="30" as="geometry" />
        </mxCell>
        <mxCell id="70frM7EX9ZJ0dtSW_2JZ-69" value="Muestra el Alert" style="html=1;verticalAlign=bottom;endArrow=open;dashed=1;endSize=8;edgeStyle=elbowEdgeStyle;elbow=vertical;curved=0;rounded=0;" edge="1" parent="1">
          <mxGeometry relative="1" as="geometry">
            <mxPoint x="265" y="615.4300000000001" as="sourcePoint" />
            <mxPoint x="98" y="616" as="targetPoint" />
          </mxGeometry>
        </mxCell>
        <mxCell id="70frM7EX9ZJ0dtSW_2JZ-70" value="" style="endArrow=none;dashed=1;html=1;rounded=0;entryX=1.002;entryY=0.624;entryDx=0;entryDy=0;entryPerimeter=0;exitX=0.002;exitY=0.624;exitDx=0;exitDy=0;exitPerimeter=0;" edge="1" parent="1" source="70frM7EX9ZJ0dtSW_2JZ-49" target="70frM7EX9ZJ0dtSW_2JZ-49">
          <mxGeometry width="50" height="50" relative="1" as="geometry">
            <mxPoint x="115" y="1330" as="sourcePoint" />
            <mxPoint x="355" y="1350" as="targetPoint" />
          </mxGeometry>
        </mxCell>
        <mxCell id="70frM7EX9ZJ0dtSW_2JZ-71" value="&lt;font style=&quot;font-size: 11px;&quot;&gt;[Result OK]&lt;/font&gt;" style="text;html=1;align=center;verticalAlign=middle;resizable=0;points=[];autosize=1;strokeColor=none;fillColor=none;" vertex="1" parent="1">
          <mxGeometry x="1040" y="545" width="80" height="30" as="geometry" />
        </mxCell>
        <mxCell id="70frM7EX9ZJ0dtSW_2JZ-72" value="&lt;font style=&quot;font-size: 11px;&quot;&gt;[Result ERR]&lt;/font&gt;" style="text;html=1;align=center;verticalAlign=middle;resizable=0;points=[];autosize=1;strokeColor=none;fillColor=none;" vertex="1" parent="1">
          <mxGeometry x="1030" y="635" width="90" height="30" as="geometry" />
        </mxCell>
        <mxCell id="70frM7EX9ZJ0dtSW_2JZ-73" value="Muestra un Alert de Error" style="html=1;verticalAlign=bottom;endArrow=open;dashed=1;endSize=8;edgeStyle=elbowEdgeStyle;elbow=vertical;curved=0;rounded=0;" edge="1" parent="1">
          <mxGeometry relative="1" as="geometry">
            <mxPoint x="635" y="664.21" as="sourcePoint" />
            <mxPoint x="277" y="664" as="targetPoint" />
          </mxGeometry>
        </mxCell>
        <mxCell id="70frM7EX9ZJ0dtSW_2JZ-74" value="" style="rounded=0;whiteSpace=wrap;html=1;fillColor=#91DEBF;" vertex="1" parent="1">
          <mxGeometry x="265" y="655" width="10" height="29" as="geometry" />
        </mxCell>
        <mxCell id="70frM7EX9ZJ0dtSW_2JZ-75" value="Muestra el Alert" style="html=1;verticalAlign=bottom;endArrow=open;dashed=1;endSize=8;edgeStyle=elbowEdgeStyle;elbow=vertical;curved=0;rounded=0;" edge="1" parent="1">
          <mxGeometry relative="1" as="geometry">
            <mxPoint x="265" y="684.4300000000001" as="sourcePoint" />
            <mxPoint x="98" y="685" as="targetPoint" />
          </mxGeometry>
        </mxCell>
        <mxCell id="70frM7EX9ZJ0dtSW_2JZ-76" value="Muestra un Alert de Error" style="html=1;verticalAlign=bottom;endArrow=open;dashed=1;endSize=8;edgeStyle=elbowEdgeStyle;elbow=vertical;curved=0;rounded=0;" edge="1" parent="1">
          <mxGeometry relative="1" as="geometry">
            <mxPoint x="632" y="743.83" as="sourcePoint" />
            <mxPoint x="277" y="743" as="targetPoint" />
          </mxGeometry>
        </mxCell>
        <mxCell id="70frM7EX9ZJ0dtSW_2JZ-77" value="" style="rounded=0;whiteSpace=wrap;html=1;fillColor=#91DEBF;" vertex="1" parent="1">
          <mxGeometry x="265" y="735" width="10" height="30" as="geometry" />
        </mxCell>
        <mxCell id="70frM7EX9ZJ0dtSW_2JZ-78" value="Muestra el Alert" style="html=1;verticalAlign=bottom;endArrow=open;dashed=1;endSize=8;edgeStyle=elbowEdgeStyle;elbow=vertical;curved=0;rounded=0;" edge="1" parent="1">
          <mxGeometry relative="1" as="geometry">
            <mxPoint x="262" y="764.0500000000001" as="sourcePoint" />
            <mxPoint x="95" y="764.62" as="targetPoint" />
          </mxGeometry>
        </mxCell>
        <mxCell id="70frM7EX9ZJ0dtSW_2JZ-79" value="Evento" style="html=1;verticalAlign=bottom;endArrow=block;edgeStyle=elbowEdgeStyle;elbow=vertical;curved=0;rounded=0;" edge="1" parent="1">
          <mxGeometry width="80" relative="1" as="geometry">
            <mxPoint x="275" y="436.33" as="sourcePoint" />
            <mxPoint x="444" y="436" as="targetPoint" />
          </mxGeometry>
        </mxCell>
      </root>
    </mxGraphModel>
  </diagram>
</mxfile>
